<svg width="171" height="71" viewBox="0 0 171 71" fill="none" xmlns="http://www.w3.org/2000/svg">
<path d="M18.179 46.5H15.8011C15.6605 45.8161 15.4144 45.2152 15.0629 44.6974C14.7177 44.1797 14.2958 43.745 13.7972 43.3935C13.305 43.0355 12.7585 42.767 12.1577 42.5881C11.5568 42.4091 10.9304 42.3196 10.2784 42.3196C9.08949 42.3196 8.01243 42.62 7.04723 43.2209C6.08842 43.8217 5.32457 44.707 4.75568 45.8768C4.19318 47.0465 3.91193 48.4815 3.91193 50.1818C3.91193 51.8821 4.19318 53.3171 4.75568 54.4869C5.32457 55.6566 6.08842 56.5419 7.04723 57.1428C8.01243 57.7436 9.08949 58.044 10.2784 58.044C10.9304 58.044 11.5568 57.9545 12.1577 57.7756C12.7585 57.5966 13.305 57.3313 13.7972 56.9798C14.2958 56.6218 14.7177 56.1839 15.0629 55.6662C15.4144 55.142 15.6605 54.5412 15.8011 53.8636H18.179C18 54.8672 17.674 55.7653 17.201 56.5579C16.728 57.3505 16.1399 58.0249 15.4368 58.581C14.7337 59.1307 13.9442 59.5494 13.0685 59.837C12.1992 60.1246 11.2692 60.2685 10.2784 60.2685C8.60369 60.2685 7.11435 59.8594 5.81037 59.0412C4.50639 58.223 3.48047 57.0597 2.7326 55.5511C1.98473 54.0426 1.6108 52.2528 1.6108 50.1818C1.6108 48.1108 1.98473 46.321 2.7326 44.8125C3.48047 43.304 4.50639 42.1406 5.81037 41.3224C7.11435 40.5043 8.60369 40.0952 10.2784 40.0952C11.2692 40.0952 12.1992 40.239 13.0685 40.5266C13.9442 40.8143 14.7337 41.2362 15.4368 41.7923C16.1399 42.342 16.728 43.0131 17.201 43.8058C17.674 44.592 18 45.4901 18.179 46.5ZM22.0214 60V40.3636H24.3992V57.8906H33.5271V60H22.0214ZM49.8675 46.5C49.6566 45.8544 49.3786 45.2759 49.0334 44.7646C48.6946 44.2468 48.2887 43.8058 47.8157 43.4414C47.3491 43.0771 46.8185 42.799 46.2241 42.6072C45.6296 42.4155 44.9776 42.3196 44.2681 42.3196C43.1048 42.3196 42.0469 42.62 41.0945 43.2209C40.142 43.8217 39.3846 44.707 38.8221 45.8768C38.2596 47.0465 37.9783 48.4815 37.9783 50.1818C37.9783 51.8821 38.2628 53.3171 38.8317 54.4869C39.4006 55.6566 40.1708 56.5419 41.1424 57.1428C42.114 57.7436 43.207 58.044 44.4215 58.044C45.5465 58.044 46.5373 57.8043 47.3938 57.3249C48.2567 56.8391 48.9279 56.1552 49.4073 55.2731C49.8931 54.3846 50.136 53.3395 50.136 52.1378L50.8647 52.2912H44.9585V50.1818H52.4371V52.2912C52.4371 53.9084 52.092 55.3146 51.4016 56.5099C50.7177 57.7053 49.7717 58.6321 48.5636 59.2905C47.3619 59.9425 45.9812 60.2685 44.4215 60.2685C42.6829 60.2685 41.1552 59.8594 39.8384 59.0412C38.5281 58.223 37.5053 57.0597 36.7702 55.5511C36.0415 54.0426 35.6772 52.2528 35.6772 50.1818C35.6772 48.6286 35.8849 47.2319 36.3004 45.9918C36.7223 44.7454 37.3168 43.6843 38.0838 42.8086C38.8509 41.9329 39.7585 41.2617 40.8068 40.7951C41.8551 40.3285 43.0089 40.0952 44.2681 40.0952C45.3036 40.0952 46.2688 40.2518 47.1637 40.565C48.065 40.8718 48.8672 41.3097 49.5703 41.8786C50.2798 42.4411 50.8711 43.1154 51.3441 43.9016C51.8171 44.6815 52.1431 45.5476 52.3221 46.5H49.8675ZM79.9046 46.5H77.5267C77.3861 45.8161 77.14 45.2152 76.7884 44.6974C76.4433 44.1797 76.0214 43.745 75.5228 43.3935C75.0306 43.0355 74.4841 42.767 73.8833 42.5881C73.2824 42.4091 72.656 42.3196 72.004 42.3196C70.8151 42.3196 69.738 42.62 68.7728 43.2209C67.814 43.8217 67.0502 44.707 66.4813 45.8768C65.9188 47.0465 65.6375 48.4815 65.6375 50.1818C65.6375 51.8821 65.9188 53.3171 66.4813 54.4869C67.0502 55.6566 67.814 56.5419 68.7728 57.1428C69.738 57.7436 70.8151 58.044 72.004 58.044C72.656 58.044 73.2824 57.9545 73.8833 57.7756C74.4841 57.5966 75.0306 57.3313 75.5228 56.9798C76.0214 56.6218 76.4433 56.1839 76.7884 55.6662C77.14 55.142 77.3861 54.5412 77.5267 53.8636H79.9046C79.7256 54.8672 79.3996 55.7653 78.9266 56.5579C78.4536 57.3505 77.8655 58.0249 77.1624 58.581C76.4593 59.1307 75.6698 59.5494 74.7941 59.837C73.9248 60.1246 72.9948 60.2685 72.004 60.2685C70.3293 60.2685 68.8399 59.8594 67.536 59.0412C66.232 58.223 65.2061 57.0597 64.4582 55.5511C63.7103 54.0426 63.3364 52.2528 63.3364 50.1818C63.3364 48.1108 63.7103 46.321 64.4582 44.8125C65.2061 43.304 66.232 42.1406 67.536 41.3224C68.8399 40.5043 70.3293 40.0952 72.004 40.0952C72.9948 40.0952 73.9248 40.239 74.7941 40.5266C75.6698 40.8143 76.4593 41.2362 77.1624 41.7923C77.8655 42.342 78.4536 43.0131 78.9266 43.8058C79.3996 44.592 79.7256 45.4901 79.9046 46.5ZM85.7029 51.1406V60H83.4402V40.3636H85.7029V47.5739H85.8947C86.2399 46.8132 86.7576 46.2092 87.448 45.7617C88.1447 45.3079 89.0716 45.081 90.2285 45.081C91.2321 45.081 92.111 45.2823 92.8652 45.685C93.6195 46.0813 94.2044 46.6918 94.6199 47.5163C95.0417 48.3345 95.2527 49.3764 95.2527 50.642V60H92.9899V50.7955C92.9899 49.6257 92.6863 48.7212 92.079 48.082C91.4782 47.4364 90.644 47.1136 89.5765 47.1136C88.835 47.1136 88.1703 47.2702 87.5822 47.5835C87.0005 47.8967 86.5403 48.3537 86.2015 48.9545C85.8691 49.5554 85.7029 50.2841 85.7029 51.1406ZM99.3923 60V45.2727H101.655V60H99.3923ZM100.543 42.8182C100.102 42.8182 99.7215 42.668 99.4019 42.3675C99.0887 42.0671 98.9321 41.706 98.9321 41.2841C98.9321 40.8622 99.0887 40.5011 99.4019 40.2006C99.7215 39.9002 100.102 39.75 100.543 39.75C100.984 39.75 101.361 39.9002 101.674 40.2006C101.994 40.5011 102.154 40.8622 102.154 41.2841C102.154 41.706 101.994 42.0671 101.674 42.3675C101.361 42.668 100.984 42.8182 100.543 42.8182ZM116.231 48.571L114.199 49.1463C114.071 48.8075 113.882 48.4783 113.633 48.1587C113.39 47.8327 113.058 47.5643 112.636 47.3533C112.214 47.1424 111.674 47.0369 111.015 47.0369C110.114 47.0369 109.363 47.2447 108.762 47.6602C108.168 48.0692 107.871 48.5902 107.871 49.223C107.871 49.7855 108.075 50.2298 108.484 50.5558C108.893 50.8817 109.532 51.1534 110.402 51.3707L112.588 51.9077C113.905 52.2273 114.886 52.7163 115.531 53.3746C116.177 54.0266 116.5 54.8672 116.5 55.8963C116.5 56.7401 116.257 57.4943 115.771 58.1591C115.292 58.8239 114.621 59.348 113.758 59.7315C112.895 60.1151 111.891 60.3068 110.747 60.3068C109.245 60.3068 108.002 59.9808 107.017 59.3288C106.033 58.6768 105.41 57.7244 105.148 56.4716L107.295 55.9347C107.5 56.7273 107.887 57.3217 108.455 57.718C109.031 58.1143 109.782 58.3125 110.709 58.3125C111.763 58.3125 112.601 58.0888 113.221 57.6413C113.847 57.1875 114.16 56.6442 114.16 56.0114C114.16 55.5 113.981 55.0717 113.623 54.7266C113.265 54.375 112.716 54.1129 111.974 53.9403L109.52 53.3651C108.171 53.0455 107.18 52.5501 106.547 51.8789C105.921 51.2013 105.608 50.3544 105.608 49.3381C105.608 48.5071 105.841 47.772 106.308 47.1328C106.781 46.4936 107.423 45.9918 108.235 45.6275C109.053 45.2631 109.98 45.081 111.015 45.081C112.473 45.081 113.617 45.4006 114.448 46.0398C115.285 46.679 115.88 47.5227 116.231 48.571ZM108.695 66.5199L109.769 61.5533H112.089L110.459 66.5199H108.695ZM119.906 60V45.2727H122.169V60H119.906ZM121.057 42.8182C120.616 42.8182 120.235 42.668 119.916 42.3675C119.602 42.0671 119.446 41.706 119.446 41.2841C119.446 40.8622 119.602 40.5011 119.916 40.2006C120.235 39.9002 120.616 39.75 121.057 39.75C121.498 39.75 121.875 39.9002 122.188 40.2006C122.508 40.5011 122.667 40.8622 122.667 41.2841C122.667 41.706 122.508 42.0671 122.188 42.3675C121.875 42.668 121.498 42.8182 121.057 42.8182ZM128.576 51.1406V60H126.313V45.2727H128.499V47.5739H128.691C129.036 46.826 129.56 46.2251 130.263 45.7713C130.967 45.3111 131.874 45.081 132.987 45.081C133.984 45.081 134.856 45.2855 135.604 45.6946C136.352 46.0973 136.934 46.7109 137.349 47.5355C137.765 48.3537 137.972 49.3892 137.972 50.642V60H135.71V50.7955C135.71 49.6385 135.409 48.7372 134.808 48.0916C134.207 47.4396 133.383 47.1136 132.335 47.1136C131.612 47.1136 130.967 47.2702 130.398 47.5835C129.835 47.8967 129.391 48.3537 129.065 48.9545C128.739 49.5554 128.576 50.2841 128.576 51.1406ZM146.441 60.3452C145.508 60.3452 144.661 60.1694 143.9 59.8178C143.139 59.4599 142.535 58.9453 142.088 58.2741C141.641 57.5966 141.417 56.7784 141.417 55.8196C141.417 54.9759 141.583 54.2919 141.915 53.7678C142.248 53.2372 142.692 52.8217 143.248 52.5213C143.804 52.2209 144.418 51.9972 145.089 51.8501C145.767 51.6967 146.447 51.5753 147.131 51.4858C148.026 51.3707 148.752 51.2844 149.308 51.2269C149.87 51.163 150.279 51.0575 150.535 50.9105C150.797 50.7635 150.928 50.5078 150.928 50.1435V50.0668C150.928 49.1207 150.669 48.3857 150.152 47.8615C149.64 47.3374 148.864 47.0753 147.822 47.0753C146.741 47.0753 145.894 47.3118 145.281 47.7848C144.667 48.2578 144.236 48.7628 143.986 49.2997L141.839 48.5327C142.222 47.6378 142.734 46.9411 143.373 46.4425C144.018 45.9375 144.722 45.5859 145.482 45.3878C146.249 45.1832 147.003 45.081 147.745 45.081C148.218 45.081 148.761 45.1385 149.375 45.2536C149.995 45.3622 150.593 45.5891 151.168 45.9343C151.75 46.2795 152.232 46.8004 152.616 47.4972C152.999 48.1939 153.191 49.1271 153.191 50.2969V60H150.928V58.0057H150.813C150.66 58.3253 150.404 58.6673 150.046 59.0316C149.688 59.396 149.212 59.706 148.617 59.9616C148.023 60.2173 147.297 60.3452 146.441 60.3452ZM146.786 58.3125C147.681 58.3125 148.435 58.1367 149.049 57.7852C149.669 57.4336 150.136 56.9798 150.449 56.4237C150.768 55.8675 150.928 55.2827 150.928 54.669V52.598C150.832 52.7131 150.621 52.8185 150.295 52.9144C149.976 53.0039 149.605 53.0838 149.183 53.1541C148.768 53.218 148.362 53.2756 147.965 53.3267C147.576 53.3714 147.259 53.4098 147.016 53.4418C146.428 53.5185 145.878 53.6431 145.367 53.8157C144.862 53.9819 144.453 54.2344 144.14 54.5732C143.833 54.9055 143.68 55.3594 143.68 55.9347C143.68 56.7209 143.97 57.3153 144.552 57.718C145.14 58.1143 145.885 58.3125 146.786 58.3125ZM149.778 40.3636H151.887C151.887 41.3991 151.529 42.2461 150.813 42.9045C150.097 43.5629 149.126 43.892 147.898 43.892C146.69 43.892 145.728 43.5629 145.012 42.9045C144.303 42.2461 143.948 41.3991 143.948 40.3636H146.057C146.057 40.8622 146.195 41.3001 146.47 41.6772C146.751 42.0543 147.227 42.2429 147.898 42.2429C148.57 42.2429 149.049 42.0543 149.337 41.6772C149.631 41.3001 149.778 40.8622 149.778 40.3636ZM166.602 53.9787V45.2727H168.865V60H166.602V57.5071H166.449C166.104 58.255 165.567 58.891 164.838 59.4151C164.109 59.9329 163.189 60.1918 162.077 60.1918C161.156 60.1918 160.338 59.9904 159.622 59.5877C158.906 59.1786 158.344 58.565 157.935 57.7468C157.526 56.9222 157.321 55.8835 157.321 54.6307V45.2727H159.584V54.4773C159.584 55.5511 159.884 56.4077 160.485 57.0469C161.092 57.6861 161.866 58.0057 162.805 58.0057C163.368 58.0057 163.94 57.8619 164.522 57.5742C165.11 57.2866 165.602 56.8455 165.998 56.2511C166.401 55.6566 166.602 54.8991 166.602 53.9787Z" fill="#F9F8FD"/>
<rect y="21.2979" width="56" height="10.7017" fill="#E50020"/>
<rect width="56" height="10.7015" fill="#E50020"/>
<rect y="10.6494" width="56" height="10.7015" fill="white"/>
<rect x="104" width="56" height="10.6668" fill="#050605"/>
<rect x="104" y="10.667" width="56" height="10.6667" fill="#D5001B"/>
<rect x="104" y="21.334" width="56" height="10.6664" fill="#FDCF0A"/>
<path d="M131.409 10.7199C130.846 10.6384 130.484 10.4802 130.324 10.2842C130.718 10.429 131.184 10.5352 131.732 10.5737L131.73 10.611C131.176 10.5709 130.706 10.4634 130.331 10.2883C130.507 10.451 130.862 10.6054 131.409 10.7199Z" fill="#050605"/>
<rect x="64" width="32" height="32" fill="#C9151C"/>
<rect x="76.7334" y="5" width="6.53342" height="22" fill="white"/>
<rect x="69" y="12.7949" width="22" height="6.40938" fill="white"/>
</svg>
