<svg width="85" height="60" viewBox="0 0 85 60" fill="none" xmlns="http://www.w3.org/2000/svg">
<path d="M2.52206 60C1.86146 60 1.22044 59.7402 0.738984 59.2626C0.0951723 58.6202 -0.151156 57.6761 0.0979714 56.799L3.64454 44.2968C1.25963 39.9367 0 35.0179 0 29.9986C0 13.4603 13.4893 0 30.066 0C46.6456 0 60.1321 13.4603 60.1321 29.9986C60.1321 46.5397 46.6456 60 30.066 60C25.0359 60 20.1065 58.7431 15.7398 56.3633L3.20786 59.9022C2.98113 59.9665 2.7516 60 2.52206 60ZM16.0701 51.1429C16.5208 51.1429 16.9659 51.263 17.3605 51.4976C21.1786 53.7684 25.5733 54.9695 30.066 54.9695C43.8632 54.9695 55.0907 43.7689 55.0907 29.9986C55.0907 16.2311 43.8632 5.03049 30.066 5.03049C16.2661 5.03049 5.04133 16.2311 5.04133 29.9986C5.04133 34.4816 6.24498 38.8669 8.52071 42.6796C8.87341 43.2717 8.97138 43.984 8.78104 44.6516L6.175 53.8411L15.3843 51.2378C15.6082 51.1736 15.8406 51.1429 16.0701 51.1429ZM20.4228 26.9317C18.7993 25.2809 15.8882 25.3089 14.2646 26.9317C13.4529 27.7417 13.033 28.8003 13.033 30.0042C13.033 31.2052 13.4529 32.2359 14.2646 33.0767C15.1044 33.8867 16.1681 34.3308 17.3437 34.3308C18.5474 34.3308 19.6111 33.8867 20.4228 33.0767C21.2626 32.2359 21.6825 31.2052 21.6825 30.0042C21.6825 28.8003 21.2346 27.7417 20.4228 26.9317ZM33.411 26.9317C31.7595 25.2809 28.8764 25.2809 27.2528 26.9317C26.4131 27.7417 25.9932 28.8003 25.9932 30.0042C25.9932 31.1773 26.4131 32.2359 27.2528 33.0767C28.0646 33.8867 29.1283 34.3308 30.332 34.3308C31.5076 34.3308 32.5713 33.8867 33.411 33.0767C34.2228 32.2639 34.6427 31.1773 34.6427 30.0042C34.6427 28.8003 34.2228 27.7417 33.411 26.9317ZM45.8674 26.9317C44.2159 25.2809 41.3327 25.3089 39.7092 26.9317C38.8974 27.7417 38.4496 28.8003 38.4496 30.0042C38.4496 31.1773 38.8974 32.2639 39.7092 33.0767C40.521 33.8867 41.5847 34.3308 42.7883 34.3308C43.964 34.3308 45.0277 33.8867 45.8674 33.0767C46.6792 32.2359 47.0991 31.1773 47.0991 30.0042C47.0991 28.8003 46.6792 27.7417 45.8674 26.9317ZM84.261 59.2626C84.9048 58.6202 85.1512 57.6761 84.902 56.799L81.3555 44.2968C83.7404 39.9367 85 35.0179 85 29.9986C85 13.4603 71.5107 0 54.934 0C53.5428 0 52.4147 1.12844 52.4147 2.51664C52.4147 3.90485 53.5428 5.03049 54.934 5.03049C68.7339 5.03049 79.9587 16.2311 79.9587 29.9986C79.9587 34.4816 78.755 38.8669 76.4793 42.6796C76.1266 43.2717 76.0314 43.984 76.219 44.6516L78.8278 53.8411L69.6185 51.2378C68.9523 51.0507 68.2329 51.1429 67.6423 51.4976C63.8214 53.7684 59.4267 54.9695 54.934 54.9695C53.5428 54.9695 52.4147 56.0951 52.4147 57.4834C52.4147 58.8716 53.5428 60 54.934 60C59.9641 60 64.8935 58.7431 69.263 56.3633L81.7922 59.9022C82.0189 59.9665 82.2484 60 82.4779 60C83.1385 60 83.7795 59.7402 84.261 59.2626Z" fill="#7F58F9"/>
</svg>
