<svg width="60" height="60" viewBox="0 0 60 60" fill="none" xmlns="http://www.w3.org/2000/svg">
<mask id="mask0_4_15155" style="mask-type:alpha" maskUnits="userSpaceOnUse" x="0" y="0" width="60" height="60">
<rect width="60" height="60" fill="#7F58F9"/>
</mask>
<g mask="url(#mask0_4_15155)">
<path d="M30 0C13.4542 0 0 13.4542 0 30C0 46.5458 13.4542 60 30 60C46.5458 60 60 46.5458 60 30C60 13.4542 46.5458 0 30 0ZM20.4305 5.50169C19.1085 7.18983 18.0102 9.03051 17.1458 11.0034C15.6712 10.7797 14.1864 10.5254 12.7119 10.2305C14.9898 8.22712 17.6136 6.62034 20.4305 5.50169ZM9.65085 13.3627C11.6136 13.8102 13.678 14.2068 15.7932 14.5322C14.3695 18.9458 13.5864 23.522 13.4542 28.1593H3.79322C4.15932 22.7695 6.22373 17.5424 9.65085 13.3627ZM3.79322 31.8508H13.4542C13.5763 36.4678 14.3593 41.0339 15.7831 45.4373C13.6373 45.7831 11.6237 46.1797 9.65085 46.6271C6.2339 42.4576 4.16949 37.2305 3.79322 31.8508ZM12.6915 49.7593C14.1661 49.4644 15.6508 49.1898 17.1254 48.9661C17.9898 50.9491 19.0983 52.8 20.4305 54.4983C17.6034 53.3797 14.9695 51.7729 12.6915 49.7593ZM28.1492 56.0034C25.4847 55.1695 22.9627 52.5153 20.9593 48.4475C23.2983 48.2034 25.7085 48.0508 28.1492 48V56.0034ZM28.1492 44.2983C25.261 44.3491 22.3525 44.5424 19.4847 44.878C18.061 40.6678 17.2881 36.2847 17.1559 31.8508L28.1492 31.8407V44.2983ZM28.1492 28.1492H17.1559C17.278 23.6949 18.0712 19.3017 19.4949 15.0814C22.3627 15.4068 25.2712 15.5898 28.1492 15.6407V28.1492ZM28.1492 11.9492C25.7186 11.8983 23.3085 11.7458 20.9797 11.5017C22.9831 7.45424 25.4949 4.83051 28.1492 3.98644V11.9492ZM56.2068 28.1492H46.5458C46.4237 23.522 45.6407 18.9458 44.2169 14.5322C46.322 14.1966 48.3763 13.8102 50.3492 13.3627C53.7661 17.5424 55.8305 22.7695 56.2068 28.1492ZM39.5797 5.51186C42.3864 6.62034 45.0203 8.22712 47.2881 10.2203C45.8136 10.5254 44.3288 10.7797 42.8542 11.0034C42 9.03051 40.9017 7.18983 39.5797 5.51186ZM31.8508 3.98644C34.5051 4.83051 37.0271 7.45424 39.0203 11.5017C36.6814 11.7458 34.2712 11.8983 31.8508 11.9492V3.98644ZM31.8508 15.6508C34.7288 15.6 37.6373 15.4068 40.5051 15.0814C41.9288 19.3017 42.722 23.7051 42.8542 28.1593L31.8508 28.1492V15.6508ZM31.8508 31.8508H42.8542C42.7119 36.2949 41.939 40.6678 40.5153 44.878C37.6475 44.5424 34.739 44.3491 31.8508 44.2983V31.8508ZM31.8508 56.0034V48C34.2915 48.0508 36.7017 48.2034 39.0407 48.4475C37.0373 52.5254 34.5153 55.1695 31.8508 56.0034ZM39.5695 54.4983C40.9017 52.8 42.0102 50.9491 42.8746 48.9661C44.3491 49.1898 45.8339 49.4542 47.3085 49.7593C45.0305 51.7627 42.3966 53.3797 39.5695 54.4983ZM50.3492 46.6373C48.3763 46.1797 46.3627 45.7831 44.2169 45.4373C45.6407 41.0441 46.4237 36.478 46.5458 31.8508H56.2068C55.8407 37.2407 53.7661 42.4576 50.3492 46.6373Z" fill="#7F58F9"/>
</g>
</svg>
