<svg width="68" height="60" viewBox="0 0 68 60" fill="none" xmlns="http://www.w3.org/2000/svg">
<path d="M67.0446 56.2319L67.0121 56.1676L66.7084 55.4289L53.4014 23.6298C52.9785 22.5913 51.959 21.9167 50.8311 21.9274C49.7033 21.9167 48.6838 22.5913 48.2608 23.6191L34.6502 56.1676C34.0646 57.5702 34.737 59.1762 36.1577 59.7544C37.5784 60.3326 39.2052 59.6688 39.7908 58.2662L42.7081 51.3068H58.9542L61.8715 58.2662C62.4354 59.6688 64.0514 60.3647 65.4829 59.8079C66.9145 59.2405 67.6086 57.6452 67.0446 56.2319ZM45.0073 45.8035L50.8311 31.874L56.655 45.8035H45.0073ZM47.2956 9.0258C47.2956 10.5462 46.0484 11.7774 44.5084 11.7774H39.2377L39.1184 12.1522C36.6999 19.7433 33.0885 26.9275 28.4251 33.4158L28.154 33.7691L28.4576 34.0903C30.1603 35.9961 32.0365 37.7627 34.0537 39.3473C35.2792 40.2146 35.5612 41.8955 34.7153 43.1268L34.6719 43.1804C34.1296 43.9191 33.2837 44.3153 32.4161 44.3153C31.8522 44.3153 31.2774 44.144 30.7785 43.7906C28.6962 42.1846 26.755 40.4073 24.9763 38.4694L24.5751 38.0411L24.1738 38.4694C20.1936 42.8163 16.4629 45.9427 13.6974 47.9984C10.9211 50.0648 9.10991 51.0498 8.95808 51.1355C7.60244 51.8635 5.9106 51.371 5.17313 50.0434C4.44651 48.705 4.93454 47.0348 6.29018 46.3067C11.6694 42.9983 16.5063 38.8976 20.6166 34.1438L20.9203 33.8119L20.6383 33.4586C20.5082 33.2873 20.3672 33.116 20.2262 32.934C17.1028 29.1224 14.4457 24.9575 12.3092 20.5249C12.1682 20.1929 12.0923 19.8289 12.0923 19.4756C12.0923 17.9552 13.3395 16.7132 14.8795 16.7132C15.9966 16.7132 17.016 17.3771 17.4498 18.4049C19.261 22.088 21.4734 25.5784 24.0437 28.8012L24.4992 29.39L24.9221 28.7798C28.3492 23.7155 31.1038 18.2336 33.121 12.4841L33.3813 11.7667H2.7872C1.24719 11.7667 0 10.5354 0 9.01509C0 7.49473 1.24719 6.27416 2.7872 6.27416H20.866V2.75164C20.866 1.23128 22.1132 0 23.6532 0C25.1932 0 26.4404 1.23128 26.4404 2.75164V6.28487H44.5084C46.0484 6.28487 47.2956 7.51614 47.2956 9.0258Z" fill="#7F58F9"/>
</svg>
