<svg width="68" height="60" viewBox="0 0 68 60" fill="none" xmlns="http://www.w3.org/2000/svg">
<path d="M9.339 10.04H58.5225C63.6715 10.04 67.8605 14.2291 67.8605 19.378V50.6638C67.8605 55.8133 63.6711 60.0028 58.5215 60.0028H9.339C4.18946 60.0028 0 55.8133 0 50.6638V19.379C0 14.2295 4.18946 10.04 9.339 10.04ZM58.5215 55.0028C60.9141 55.0028 62.8605 53.0563 62.8605 50.6638V19.378C62.8605 16.9861 60.9145 15.04 58.5225 15.04H9.339C6.94648 15.04 5 16.9865 5 19.379V50.6638C5 53.0563 6.94648 55.0028 9.339 55.0028H58.5215Z" fill="#7F58F9"/>
<path d="M47.8529 15.04H20.0078V8.13853C20.0078 3.65093 23.6587 0 28.1463 0H39.7143C44.2019 0 47.8529 3.65093 47.8529 8.13853V15.04ZM25.0078 10.04H42.8529V8.13853C42.8529 6.40794 41.4449 5 39.7143 5H28.1463C26.4157 5 25.0078 6.40794 25.0078 8.13853V10.04Z" fill="#7F58F9"/>
<path d="M31.4294 24.8506H36.4318C36.9244 24.8506 37.3226 25.2496 37.3226 25.7413V31.6265H43.2077C43.6994 31.6265 44.0984 32.0255 44.0984 32.5172V37.5196C44.0984 38.0113 43.6994 38.4104 43.2077 38.4104H37.3226V44.3035C37.3226 44.7952 36.9244 45.1943 36.4318 45.1943H31.4294C30.9377 45.1943 30.5387 44.7952 30.5387 44.3035V38.4104H24.6544C24.1618 38.4104 23.7637 38.0113 23.7637 37.5196V32.5172C23.7637 32.0255 24.1618 31.6265 24.6544 31.6265H30.5387V25.7413C30.5387 25.2496 30.9377 24.8506 31.4294 24.8506Z" fill="#7F58F9"/>
</svg>
