<svg width="85" height="44" viewBox="0 0 85 44" fill="none" xmlns="http://www.w3.org/2000/svg">
<path d="M0.536224 8.26909C0.624649 8.9727 1.06677 9.58836 1.68575 10.0281C3.27739 10.9956 5.31116 10.1161 5.75329 8.26909C5.93014 7.56549 5.93014 6.77393 5.93014 5.98237C5.93014 5.01491 5.93014 4.1354 5.93014 3.16794C5.84171 2.28843 5.66486 1.49688 4.95747 0.969172C4.60377 0.705319 4.25006 0.529417 3.89637 0.353516C3.36582 0.353516 2.83527 0.353516 2.30473 0.353516C1.77417 0.529417 1.33205 0.79327 0.978349 1.32097C0.536224 2.02458 0.359375 2.81614 0.359375 3.69565C0.359375 4.57516 0.359375 5.45467 0.359375 6.33418C0.4478 6.94983 0.4478 7.56549 0.536224 8.26909Z" fill="#7F58F9"/>
<path d="M3.08526 10.7787C3.08517 10.7787 3.08535 10.7787 3.08526 10.7787C2.53073 10.7787 1.98135 10.623 1.49671 10.3284L1.47522 10.3142C0.735945 9.789 0.2758 9.07798 0.179561 8.31218C0.135716 7.96328 0.113298 7.63959 0.0916196 7.32657C0.0689284 6.99894 0.0475014 6.68949 0.00353408 6.38334L0 6.35875V3.6954C0 2.6928 0.220016 1.85528 0.672612 1.135L0.678272 1.12628C1.03982 0.58687 1.50598 0.245215 2.18978 0.018504L2.2456 0H3.98178L4.05821 0.0380112C4.42035 0.218119 4.79468 0.404289 5.17427 0.687452C5.99818 1.30207 6.19613 2.22603 6.28731 3.13293L6.28906 3.1677V5.98212C6.28906 6.78104 6.28906 7.60714 6.1021 8.35212C5.75897 9.78092 4.51867 10.7787 3.08526 10.7787ZM1.88522 9.73393C2.25361 9.95524 2.66824 10.0722 3.08518 10.0722C4.18457 10.0722 5.13788 9.29736 5.40347 8.18788L5.40441 8.18406C5.57076 7.52222 5.57076 6.77413 5.57076 5.98212V3.18524C5.48094 2.30575 5.30907 1.67476 4.74021 1.2504C4.43645 1.0238 4.13122 0.866467 3.81045 0.706528H2.36487C1.86859 0.88007 1.54206 1.12296 1.28086 1.51087C0.902332 2.11533 0.718303 2.82997 0.718303 3.6954V6.30943C0.763496 6.63213 0.785259 6.94636 0.808264 7.27855C0.829281 7.58205 0.851017 7.89589 0.892434 8.2255C0.963465 8.79067 1.31589 9.32594 1.88522 9.73393Z" fill="white"/>
<path d="M27.2191 2.28843C26.9539 1.32097 26.4234 0.617368 25.4507 0.353516C24.9202 0.353516 24.3895 0.353516 23.7706 0.353516C22.9747 0.617368 22.3558 1.14507 22.0906 2.02458C22.0022 2.46434 21.8252 2.90409 21.8252 3.34385C21.8252 4.48721 21.8252 5.63057 21.8252 6.77393C21.8252 7.21368 21.8252 7.65344 21.9136 8.09319C22.0906 8.9727 22.5327 9.76426 23.417 10.204C24.8317 10.8197 26.4234 10.204 26.9539 8.7968C27.1307 8.26909 27.2191 7.74139 27.3077 7.21368C27.3961 5.98237 27.3077 4.83901 27.3077 3.6077C27.3961 3.16794 27.3077 2.72819 27.2191 2.28843Z" fill="#7F58F9"/>
<path d="M23.7115 0H25.499L25.5459 0.0127105C26.5646 0.289048 27.2442 1.02368 27.5656 2.1962L27.5712 2.21954C27.6628 2.67458 27.7575 3.14478 27.6666 3.64036C27.6671 4.0387 27.6769 4.43417 27.6864 4.81698C27.7057 5.59723 27.7256 6.40403 27.6657 7.23832L27.6618 7.27096C27.5722 7.80485 27.48 8.35426 27.2947 8.90713L27.2904 8.91936C26.8608 10.0589 25.7828 10.7953 24.5441 10.7953C24.109 10.7953 23.6808 10.7049 23.2714 10.5268L23.2547 10.519C22.3684 10.0782 21.7827 9.26304 21.5611 8.16153C21.4658 7.68778 21.4658 7.22307 21.4658 6.77367V3.34359C21.4658 3.00469 21.5518 2.68416 21.6349 2.3742C21.6739 2.22886 21.7107 2.09159 21.738 1.9558L21.746 1.92386C22.0249 0.999072 22.6853 0.340214 23.6557 0.0185038L23.7115 0ZM25.4001 0.706528H23.831C23.1169 0.958364 22.6489 1.43025 22.4392 2.10992C22.408 2.26155 22.3681 2.41036 22.3295 2.55443C22.2547 2.8331 22.1841 3.09632 22.1841 3.34359V6.77367C22.1841 7.20818 22.1841 7.6186 22.2657 8.0244C22.4447 8.91383 22.8836 9.53957 23.5705 9.88438C23.8852 10.02 24.2127 10.0887 24.5441 10.0887C25.4771 10.0887 26.2891 9.53586 26.6146 8.67968C26.7796 8.18535 26.8629 7.69293 26.9503 7.17229C27.0064 6.37749 26.9879 5.62766 26.9683 4.83416C26.9584 4.43659 26.9483 4.02548 26.9483 3.60745V3.57285L26.9551 3.53891C27.0291 3.17095 26.952 2.7812 26.869 2.36879C26.6157 1.45449 26.148 0.924875 25.4001 0.706528Z" fill="white"/>
<path d="M84.5525 24.9785C84.5525 23.8351 84.5525 22.6918 84.5525 21.5484C84.5525 20.1412 84.5525 18.734 84.5525 17.3268C84.5525 16.2714 84.5525 15.2159 84.5525 14.0726C84.5525 12.4895 84.5525 10.9943 84.5525 9.41123C84.5525 8.00401 84.5525 6.5968 84.5525 5.18958C84.5525 4.48598 84.3756 3.78237 83.9334 3.25467C83.2261 2.37516 82.2534 2.28721 81.2807 2.46311C80.3965 2.63901 79.7775 3.16671 79.6006 4.04622C79.4238 4.66188 79.3354 5.36549 79.3354 5.98114C79.3354 9.49918 79.3354 13.1052 79.3354 16.6232C79.3354 16.7111 79.3354 16.7991 79.3354 16.887C79.247 16.7991 79.1586 16.7111 79.1586 16.7111C78.3627 15.8316 77.567 15.04 76.5942 14.3365C75.6215 13.6329 74.6488 13.1931 73.4109 13.1052C71.554 13.1052 69.6087 13.1052 67.7517 13.1931C66.6022 13.1931 65.541 13.5449 64.6569 14.2485C63.3305 15.3039 62.0041 16.4473 60.6778 17.5906C59.7051 18.4701 59.0862 19.6135 58.9977 20.9327C58.9093 22.0761 58.9092 23.3074 58.9092 24.4508C58.9092 27.5291 58.9092 30.6073 58.9092 33.7736C58.9092 35.1808 59.3514 36.588 60.3241 37.6434C60.8546 38.2591 61.4735 38.7868 62.0041 39.3145C62.9768 40.194 63.9494 41.0735 65.099 41.6892C66.1601 42.2169 67.2212 42.5687 68.3708 42.5687C69.9624 42.5687 71.6424 42.5687 73.234 42.5687C73.5878 42.5687 73.9415 42.4807 74.2951 42.3928C75.6215 42.041 76.6827 41.2494 77.6554 40.3699C78.1858 39.9301 78.7163 39.4024 79.247 38.8747C79.247 39.3145 79.247 39.6663 79.3354 40.0181C79.4238 40.7217 79.6006 41.4253 80.2197 41.953C80.927 42.5687 81.8113 42.6566 82.6955 42.4807C83.4029 42.3048 83.9334 41.953 84.1103 41.3373C84.2872 40.8097 84.464 40.2819 84.5525 39.7542C84.6409 38.435 84.6409 37.1157 84.6409 35.7965C84.6409 34.5651 84.6409 33.3338 84.6409 32.0146C84.6409 30.7832 84.6409 29.6399 84.6409 28.4086C84.5525 27.2652 84.5525 26.1218 84.5525 24.9785ZM79.247 30.8712C79.247 31.6628 79.0702 32.3664 78.4511 32.8061C76.9479 34.1254 75.4447 35.3567 73.9415 36.6759C73.3224 37.2037 72.5267 37.3796 71.7308 37.3796C70.8465 37.3796 69.874 37.3796 68.9897 37.3796C68.1938 37.3796 67.5749 37.1157 66.956 36.6759C66.4253 36.2362 65.8064 35.7965 65.2758 35.3567C64.6569 34.9169 64.3916 34.3013 64.3032 33.5097C64.2148 32.7182 64.2147 31.9266 64.2147 31.135C64.2147 30.0796 64.2147 29.0242 64.2147 27.9688C64.2147 27.9688 64.2148 27.9688 64.3032 27.9688C64.3032 26.2977 64.3032 24.7146 64.3032 23.0436C64.3032 22.4279 64.3916 21.9002 64.6569 21.3725C64.7453 21.1966 64.8337 21.1087 64.9221 20.9327C65.718 20.3171 66.5138 19.7014 67.2212 19.0858C67.7517 18.646 68.3708 18.5581 69.0781 18.5581C70.0508 18.5581 70.9351 18.5581 71.9077 18.5581C72.6151 18.5581 73.234 18.734 73.8531 19.1737C74.5604 19.7014 75.2679 20.2291 75.8868 20.8448C76.7711 21.5484 77.567 22.34 78.4511 23.0436C79.0702 23.5713 79.3354 24.1869 79.3354 24.9785C79.247 26.9134 79.247 28.8483 79.247 30.8712Z" fill="#7F58F9"/>
<path d="M73.2338 42.9217H68.3705C67.2865 42.9217 66.1954 42.6301 64.9367 42.0042L64.927 41.9992C63.739 41.3629 62.7339 40.4541 61.7618 39.5752L61.7486 39.5626C61.5784 39.3934 61.4007 39.2258 61.2126 39.0484C60.8237 38.6816 60.4216 38.3024 60.0537 37.8759C59.0838 36.8212 58.5498 35.3645 58.5498 33.7733V24.4505C58.5498 23.3326 58.5498 22.0656 58.6393 20.9077C58.7309 19.5463 59.3516 18.3094 60.4345 17.3303L60.4408 17.3247C61.7476 16.1982 63.0989 15.0334 64.4308 13.9736C65.3608 13.2335 66.506 12.8415 67.7427 12.8396C69.6057 12.7516 71.54 12.7516 73.4106 12.7516L73.4365 12.7526C74.6439 12.8383 75.6834 13.239 76.8068 14.0516C77.6669 14.6737 78.3772 15.3552 78.976 15.9881V5.98089C78.976 5.31181 79.0762 4.57739 79.251 3.9633C79.4534 2.98322 80.1483 2.32769 81.2092 2.1166L81.2155 2.11541C81.5141 2.0614 81.7856 2.03516 82.0453 2.03516C82.95 2.03516 83.6792 2.37076 84.2127 3.0326C84.6698 3.57962 84.9114 4.32532 84.9114 5.18933V24.9782C84.9114 26.0959 84.9114 27.2515 84.9988 28.3815L84.9998 28.4083V35.7962C84.9998 37.0991 84.9998 38.4464 84.9106 39.7772L84.9066 39.8114C84.8139 40.3648 84.6309 40.9117 84.4534 41.4407C84.2516 42.1325 83.6897 42.5976 82.7833 42.823L82.7665 42.8267C82.4761 42.8845 82.194 42.9138 81.9278 42.9138C81.9278 42.9138 81.9278 42.9138 81.9278 42.9138C81.1678 42.9137 80.5132 42.6797 79.9825 42.2182C79.2661 41.6065 79.0728 40.7968 78.9813 40.0816C78.9506 39.955 78.93 39.829 78.9161 39.7013C78.5774 40.0306 78.2345 40.3509 77.8925 40.6349C76.9857 41.4543 75.8605 42.3431 74.3884 42.7336L74.383 42.735C74.0139 42.8268 73.6323 42.9217 73.2338 42.9217ZM65.2658 41.3761C66.418 41.9485 67.4048 42.2151 68.3705 42.2151H73.2338C73.5421 42.2151 73.8636 42.1354 74.2041 42.0507C75.5284 41.6987 76.5689 40.872 77.4121 40.1096L77.4237 40.0995C77.9408 39.6709 78.4734 39.1411 78.9886 38.6289L79.6059 38.015V38.8745C79.6059 39.2927 79.6059 39.623 79.6838 39.9331L79.689 39.9536L79.6916 39.9745C79.7691 40.5916 79.9152 41.2259 80.4547 41.6858L80.4575 41.6882C80.8587 42.0374 81.3396 42.2072 81.9277 42.2072C81.9277 42.2072 81.9278 42.2072 81.9277 42.2072C82.1437 42.2072 82.3751 42.1832 82.6156 42.1359C83.2623 41.9734 83.6381 41.6806 83.7644 41.2411L83.7689 41.2264C83.9366 40.7265 84.1099 40.2097 84.195 39.7133C84.2815 38.4112 84.2815 37.0819 84.2815 35.7962V28.4217C84.1931 27.2693 84.1931 26.1047 84.1931 24.9782V5.18933C84.1931 4.70148 84.0999 4.00876 83.6561 3.4791L83.6515 3.47358C83.2499 2.97424 82.7395 2.74168 82.0453 2.74168C81.8306 2.74168 81.6027 2.76393 81.3487 2.8097C80.565 2.9665 80.0953 3.40549 79.9528 4.1145L79.946 4.14202C79.7861 4.69894 79.6943 5.36918 79.6943 5.98089V17.7465L78.8901 16.9457C78.2291 16.2154 77.4142 15.368 76.3812 14.6208C75.3773 13.8946 74.4566 13.5357 73.3975 13.4582C71.5365 13.4582 69.6128 13.4584 67.7687 13.5457L67.7515 13.5461C66.6623 13.5461 65.697 13.8748 64.8826 14.5229C63.5627 15.5731 62.218 16.7321 60.9175 17.8533C59.9746 18.7071 59.4347 19.7798 59.3559 20.9557L59.3556 20.9593C59.2681 22.091 59.2681 23.2905 59.2681 24.4505V33.7733C59.2681 35.1909 59.7376 36.481 60.59 37.4059L60.5979 37.4148C60.9429 37.8151 61.3327 38.1828 61.7097 38.5384C61.8992 38.7171 62.0782 38.886 62.2532 39.0598C63.191 39.9077 64.1598 40.7828 65.2658 41.3761ZM71.7306 37.7326H68.9894C68.1875 37.7326 67.4954 37.4949 66.7454 36.9621L66.7243 36.9459C66.4644 36.7304 66.175 36.509 65.8952 36.2949C65.6134 36.0793 65.3221 35.8565 65.0541 35.6349C64.4052 35.1691 64.0529 34.5056 63.946 33.548C63.8553 32.736 63.8553 31.922 63.8553 31.1348V27.6153H63.9438V23.0433C63.9438 22.3171 64.0644 21.7535 64.3347 21.2157C64.3888 21.1081 64.4422 21.0283 64.4894 20.9579C64.5303 20.897 64.5656 20.8443 64.5999 20.7759L64.636 20.7043L64.6999 20.6548C65.4779 20.0529 66.2824 19.4306 66.983 18.8209L66.9895 18.8154C67.6371 18.2786 68.3759 18.2046 69.0778 18.2046H71.9074C72.7226 18.2046 73.4076 18.4214 74.0631 18.8871L74.0699 18.892C74.7712 19.4152 75.4947 19.955 76.1278 20.5822C76.5723 20.9367 76.9982 21.3157 77.4102 21.6824C77.8194 22.0466 78.2426 22.4231 78.6768 22.7687L78.6861 22.7763C79.3739 23.3627 79.6943 24.0624 79.6943 24.9782L79.694 24.9941C79.6059 26.9211 79.6059 28.8397 79.6059 30.871C79.6059 31.9055 79.3019 32.6287 78.6768 33.0811C77.9272 33.7386 77.1665 34.384 76.4306 35.0083C75.6927 35.6343 74.9297 36.2816 74.1804 36.9393L74.1765 36.9427C73.5616 37.4668 72.7387 37.7326 71.7306 37.7326ZM67.1767 36.3969C67.8003 36.8378 68.3431 37.026 68.9894 37.026H71.7306C72.5599 37.026 73.2239 36.8188 73.7043 36.4102C74.4574 35.7493 75.2221 35.1006 75.9615 34.4733C76.6994 33.8473 77.4624 33.1999 78.2118 32.5423L78.2256 32.5301L78.2406 32.5195C78.682 32.2059 78.8876 31.6821 78.8876 30.871C78.8876 28.8344 78.8876 26.9105 78.976 24.9705C78.9743 24.2711 78.7409 23.7598 78.2201 23.314C77.7722 22.9573 77.3432 22.5756 76.9283 22.2063C76.5187 21.8419 76.0953 21.465 75.6607 21.1192L75.6452 21.1069L75.6312 21.0929C75.0312 20.4962 74.3236 19.9681 73.6392 19.4575C73.1061 19.0796 72.5718 18.9111 71.9074 18.9111H69.0778C68.4256 18.9111 67.9 18.9863 67.4556 19.3531C66.7586 19.9594 65.9702 20.5709 65.2042 21.1635C65.1639 21.2352 65.1247 21.2937 65.0891 21.3468C65.0483 21.4078 65.013 21.4605 64.9786 21.5288C64.7568 21.9701 64.6622 22.423 64.6622 23.0433V28.3218H64.5736V31.1348C64.5736 31.903 64.5736 32.6973 64.66 33.4709C64.7449 34.2314 64.9997 34.7246 65.4859 35.0701L65.507 35.0863C65.7669 35.3017 66.0563 35.5231 66.3362 35.7373C66.6178 35.9527 66.9089 36.1754 67.1767 36.3969Z" fill="white"/>
<path d="M52.2702 28.1449C51.0322 27.4413 49.7059 26.9136 48.3795 26.298C46.6995 25.5064 45.0194 24.8028 43.3394 24.0112C41.9246 23.3956 40.5983 22.7799 39.1835 22.1643C38.3876 21.8125 37.5917 21.4607 36.8844 21.1089C36.3537 20.845 36.1769 20.4053 36.2653 19.8776C36.2653 19.3498 36.5307 18.998 37.0612 18.7342C37.238 18.6462 37.5033 18.5583 37.7685 18.5583C38.3876 18.5583 39.0065 18.5583 39.6255 18.5583C42.2783 18.5583 45.0194 18.5583 47.6722 18.5583C48.8217 18.5583 49.8829 18.9101 50.6786 19.7896C51.1208 20.3173 51.6513 20.5812 52.3586 20.6691C53.4198 20.845 54.6577 20.2294 55.0999 19.2619C55.6304 18.2065 55.4536 17.0631 54.5693 16.1836C54.2156 15.8318 53.7736 15.48 53.3313 15.1282C52.7124 14.6005 52.0934 14.1608 51.3861 13.8969C50.3249 13.4572 49.1754 13.2812 48.1143 13.2812C44.8426 13.2812 41.5708 13.2812 38.2108 13.2812C36.796 13.2812 35.3812 13.6331 34.1432 14.3367C33.1705 14.8644 32.3746 15.6559 31.8441 16.6234C30.9598 18.1185 30.783 19.7896 31.1368 21.4607C31.4021 22.9558 32.1978 24.0992 33.3473 25.0667C34.2316 25.7703 35.2928 26.21 36.3537 26.7377C38.476 27.7052 40.5983 28.6726 42.7204 29.6401C44.4004 30.4317 46.169 31.1353 47.849 31.9268C48.4681 32.1907 49.087 32.5425 49.7059 32.9822C50.3249 33.422 50.767 34.0376 50.6786 34.9172C50.5902 36.1485 49.9713 36.94 48.9101 37.2918C48.4681 37.3798 47.9374 37.4677 47.4954 37.4677C45.1079 37.4677 42.7204 37.4677 40.3329 37.4677C39.3603 37.4677 38.3876 37.4677 37.3265 37.3798C36.4422 37.2918 35.6464 36.94 34.939 36.3244C33.878 35.0931 32.2862 35.3569 31.3136 35.9726C30.3409 36.6762 29.7219 38.1713 30.6946 39.3147C30.9598 39.6665 31.3136 40.0183 31.6673 40.2822C32.4632 40.9858 33.2589 41.6014 34.2316 42.0412C35.3812 42.5689 36.6191 42.6568 37.8571 42.7448C39.5371 42.7448 41.3056 42.7448 42.9856 42.7448C44.5774 42.7448 46.0806 42.7448 47.6722 42.7448C48.8217 42.7448 49.9713 42.5689 51.1208 42.1291C52.9777 41.5135 54.3925 40.3701 55.1883 38.6111C55.8957 37.2039 55.9841 35.6208 55.8957 34.0376C55.7188 31.3991 54.4809 29.4642 52.2702 28.1449Z" fill="#7F58F9"/>
<path d="M47.6721 43.0978L37.8311 43.0969C36.5814 43.0081 35.2892 42.9163 34.0797 42.3611C33.0071 41.8762 32.1426 41.1765 31.438 40.5543C31.0655 40.2743 30.6927 39.9033 30.4123 39.5331C29.9722 39.0117 29.7827 38.3851 29.8641 37.7204C29.9585 36.9501 30.4324 36.1712 31.1008 35.6877L31.1192 35.6753C31.7032 35.3055 32.3876 35.1019 33.0462 35.1019C33.8945 35.1019 34.6371 35.4385 35.1953 36.0755C35.8367 36.6278 36.5647 36.9481 37.3597 37.0278C38.4046 37.1142 39.3848 37.1142 40.3328 37.1142H47.4953C47.8237 37.1142 48.256 37.0604 48.8162 36.9498C49.7516 36.6322 50.2437 35.9589 50.3202 34.892L50.3211 34.8821C50.386 34.2369 50.1159 33.7091 49.4955 33.2684C48.9004 32.8455 48.2984 32.5031 47.7061 32.2507L47.6938 32.2452C46.8589 31.8518 45.9849 31.4729 45.1398 31.1065C44.2901 30.7381 43.4116 30.3572 42.567 29.9593L36.1916 27.0527C35.98 26.9475 35.7646 26.8439 35.5562 26.7438C34.7219 26.3427 33.8592 25.9281 33.1214 25.3411L33.1138 25.3348C31.8069 24.235 31.0448 22.9893 30.7839 21.5268C30.3963 19.69 30.6546 17.9347 31.5308 16.4503C32.0938 15.4259 32.9358 14.5887 33.9665 14.0288C35.2352 13.3085 36.7027 12.9277 38.2107 12.9277H48.1142C49.3278 12.9277 50.5051 13.1493 51.5194 13.5686C52.3568 13.8823 53.0503 14.4211 53.5619 14.8571C54.0025 15.2076 54.4576 15.5699 54.8246 15.935C55.8033 16.9083 56.0274 18.2079 55.4247 19.4125C54.9869 20.3629 53.8546 21.0521 52.7294 21.0521C52.5858 21.0521 52.4435 21.0407 52.3062 21.0184C51.4978 20.9164 50.8936 20.5988 50.406 20.0196C49.7382 19.2841 48.8185 18.9113 47.6721 18.9113H37.7685C37.5198 18.9113 37.2882 19.0168 37.2232 19.0492C36.7979 19.2607 36.6244 19.5006 36.6244 19.8773V19.9062L36.6196 19.9347C36.5514 20.3418 36.687 20.6147 37.0463 20.7933C37.7462 21.1414 38.5515 21.4974 39.3302 21.8416C40.0381 22.1497 40.7359 22.4631 41.4107 22.7662C42.0836 23.0685 42.7793 23.381 43.4847 23.6879L43.4945 23.6924C44.331 24.0865 45.1833 24.4658 46.0075 24.8325C46.8352 25.2008 47.6911 25.5817 48.5346 25.9791C48.9149 26.1556 49.3037 26.3286 49.6796 26.4959C50.6019 26.9062 51.5556 27.3305 52.4498 27.8388L52.4564 27.8427C53.6156 28.5344 54.5225 29.3989 55.152 30.4121C55.7921 31.4423 56.1628 32.6542 56.254 34.0142L56.2542 34.018C56.3306 35.3861 56.3153 37.161 55.5134 38.761C54.7051 40.5428 53.2684 41.7876 51.2432 42.4611C50.1203 42.8895 48.9522 43.0978 47.6721 43.0978ZM37.87 42.3913H47.6721C48.8644 42.3913 49.9499 42.1977 50.9906 41.7996L51.006 41.7941C52.8397 41.1862 54.1364 40.0668 54.8601 38.4672L54.8663 38.4543C55.5969 37.0008 55.6087 35.342 55.5371 34.0588C55.3698 31.5705 54.2414 29.7354 52.0871 28.4487C51.2248 27.9588 50.3304 27.5609 49.3836 27.1396C49.005 26.9712 48.6136 26.797 48.2262 26.6172C47.3878 26.2222 46.5356 25.843 45.7115 25.4763C44.8853 25.1086 44.031 24.7285 43.189 24.3319C42.4815 24.0239 41.7855 23.7113 41.1124 23.4089C40.4394 23.1067 39.7436 22.7941 39.0381 22.4871C38.2496 22.1386 37.4368 21.7793 36.7222 21.4239C36.0879 21.1084 35.7989 20.5496 35.9063 19.8483C35.9159 19.2139 36.2409 18.746 36.8991 18.4187C37.0284 18.3544 37.372 18.2048 37.7685 18.2048H47.6721C49.0347 18.2048 50.1365 18.6589 50.9468 19.5545L50.9557 19.5647C51.3268 20.0076 51.7734 20.24 52.4036 20.3184L52.4183 20.3205C52.5185 20.3371 52.6232 20.3455 52.7294 20.3455C53.5739 20.3455 54.4521 19.8173 54.7723 19.1168L54.7779 19.1051C55.2489 18.168 55.0798 17.1936 54.3139 16.4318C53.9736 16.0933 53.5322 15.7422 53.1054 15.4026L53.096 15.3949C52.4002 14.8016 51.8336 14.4414 51.2586 14.227L51.2465 14.2222C50.3184 13.8376 49.2353 13.6343 48.1142 13.6343H38.2107C36.8275 13.6343 35.4831 13.9828 34.3228 14.6423L34.3166 14.6457C33.4038 15.1409 32.6581 15.8827 32.1602 16.7908L32.1545 16.8007C31.3544 18.1536 31.1303 19.6971 31.4884 21.3884L31.4905 21.3997C31.7235 22.7128 32.3866 23.7918 33.5769 24.7948C34.2506 25.3298 35.038 25.7083 35.8716 26.109C36.0803 26.2093 36.2961 26.313 36.5102 26.4194L42.8754 29.3212C43.7104 29.7146 44.5843 30.0935 45.4295 30.46C46.2777 30.8277 47.1548 31.208 47.9981 31.6051C48.6358 31.8776 49.2811 32.2444 49.9161 32.6956C50.7485 33.2869 51.1254 34.0442 51.0364 34.9465C50.9381 36.296 50.2425 37.2226 49.0248 37.6263L49.0034 37.6334L48.9813 37.6378C48.354 37.7626 47.8818 37.8207 47.4953 37.8207H40.3328C39.369 37.8207 38.3724 37.8207 37.2962 37.7315L37.2903 37.731C36.3338 37.6359 35.4626 37.2515 34.7009 36.5887L34.6816 36.5719L34.6649 36.5525C34.2395 36.0588 33.6949 35.8085 33.0462 35.8085C32.5348 35.8085 31.9783 35.9742 31.5174 36.2634C31.0082 36.6356 30.6483 37.2252 30.5773 37.805C30.5189 38.2813 30.651 38.7128 30.97 39.0877L30.983 39.104C31.2284 39.4294 31.5569 39.7562 31.8843 40.0004L31.9073 40.0192C32.6073 40.638 33.3915 41.2724 34.3816 41.7199C35.4692 42.2192 36.6354 42.3036 37.87 42.3913Z" fill="white"/>
<path d="M22.3774 16.1852C21.4048 14.778 20.5205 13.2829 19.371 11.9636C17.9562 10.3805 16.1878 9.50098 13.9771 9.50098C11.8549 9.50098 10.4401 10.1166 8.93689 11.5238C7.96421 12.4913 7.25682 13.5467 6.54942 14.69C5.3999 16.449 4.16195 18.1201 3.01243 19.8791C2.39345 20.8466 1.68605 21.902 1.1555 22.9574C0.0944068 25.2441 0.182832 27.5308 1.42078 29.6417C2.12817 30.873 2.924 32.0163 3.71982 33.1597C4.95778 35.0946 6.28415 36.9416 7.52209 38.7886C8.22948 39.756 9.02531 40.7235 9.99799 41.3391C11.3244 42.2186 12.8276 42.4825 14.4192 42.3945C15.834 42.3066 17.0719 41.8668 18.133 41.0753C19.0173 40.3717 19.8131 39.4922 20.4321 38.5247C21.5817 36.8536 22.6428 35.2705 23.7922 33.5995C24.5881 32.3681 25.4724 31.1368 26.2681 29.9055C26.9756 28.7622 27.3292 27.5308 27.4176 26.2995C27.5061 24.5405 26.9756 22.8695 25.9144 21.4622C24.7649 19.7032 23.5269 17.9442 22.3774 16.1852ZM21.8469 26.5634C21.6701 27.0031 21.4048 27.4429 21.1394 27.7947C19.5478 30.1694 18.0446 32.4561 16.453 34.8308C16.0993 35.2705 15.7455 35.7982 15.4803 36.238C14.773 37.2054 13.1813 37.3813 12.297 36.15C11.678 35.2705 11.0591 34.3031 10.4401 33.4235C9.46744 32.0163 8.58319 30.6091 7.61052 29.2019C7.16839 28.4983 6.63784 27.7947 6.19572 27.0031C6.01887 26.7393 5.93044 26.2995 5.84201 26.0357H5.93044C5.93044 25.5959 6.10729 25.1562 6.37256 24.8044C7.87579 22.5177 9.46744 20.2309 10.9707 17.9442C11.4128 17.3285 11.8549 16.7129 12.2086 16.0093C13.0044 14.69 14.773 14.6021 15.6571 16.0093C16.5414 17.4165 17.5141 18.7358 18.3983 20.143C19.371 21.6381 20.4321 23.1333 21.4048 24.6285C21.7585 25.2441 22.1122 25.8598 21.8469 26.5634Z" fill="#7F58F9"/>
<path d="M13.9768 9.14746C16.2034 9.14746 18.1089 10.0164 19.6405 11.7301L19.6434 11.7335C20.4895 12.7045 21.1972 13.7731 21.8817 14.8066C22.1396 15.1961 22.4064 15.5989 22.6741 15.9863L22.6792 15.9939C23.2524 16.8709 23.8584 17.7639 24.4445 18.6275C25.03 19.4903 25.6353 20.3823 26.2098 21.2611C27.3261 22.7459 27.8677 24.4938 27.7761 26.3167L27.7756 26.3242C27.6773 27.6932 27.2732 28.9599 26.5746 30.0889L26.5709 30.0948C26.1703 30.7146 25.7417 31.3429 25.3272 31.9505C24.9157 32.5536 24.4902 33.1772 24.095 33.7887L24.0894 33.7972C23.5165 34.63 22.9561 35.455 22.4141 36.2528C21.8703 37.0533 21.308 37.8811 20.7325 38.7177C20.0971 39.7094 19.2763 40.6195 18.3586 41.3497L18.3498 41.3565C17.2363 42.1871 15.9214 42.6549 14.4416 42.7469C14.2402 42.758 14.0425 42.7636 13.8517 42.7636C12.2732 42.7636 10.9478 42.394 9.80005 41.6339C8.74886 40.9675 7.91115 39.9258 7.23022 38.9946L7.22194 38.9828C6.76194 38.2964 6.27956 37.5954 5.81307 36.9175C5.01908 35.7636 4.19807 34.5704 3.41924 33.3534C2.63366 32.2247 1.82161 31.0577 1.1078 29.8152C-0.180816 27.618 -0.277945 25.1949 0.828479 22.8105L0.833263 22.8006C1.29161 21.8888 1.86593 20.9981 2.42134 20.1367C2.51836 19.9862 2.61428 19.8375 2.70816 19.6907C3.28759 18.804 3.89595 17.93 4.48428 17.0848C5.06889 16.2449 5.67339 15.3764 6.24462 14.5024C7.02118 13.2476 7.73297 12.2184 8.68122 11.2752L8.68899 11.2677C10.2977 9.76174 11.8297 9.14746 13.9768 9.14746ZM19.0996 12.1951C17.6912 10.6197 16.0155 9.85399 13.9768 9.85399C12.0099 9.85399 10.6668 10.3929 9.1882 11.7757C8.28997 12.67 7.60608 13.661 6.85593 14.8734L6.85125 14.8808C6.27367 15.7646 5.66531 16.6386 5.07698 17.4839C4.49155 18.325 3.8862 19.1947 3.31425 20.0699C3.22178 20.2144 3.12541 20.3639 3.02793 20.5151C2.48358 21.3593 1.92073 22.2323 1.47965 23.1088C0.461732 25.3058 0.546516 27.4442 1.73158 29.4649C2.43295 30.6857 3.23764 31.8418 4.01584 32.9598L4.0235 32.9713C4.79705 34.1804 5.61598 35.3705 6.40794 36.5214C6.87429 37.1992 7.35646 37.8999 7.81766 38.5879C8.45909 39.4647 9.2426 40.4409 10.192 41.0418L10.1985 41.046C11.2245 41.7263 12.4195 42.057 13.8517 42.057C14.0292 42.057 14.2132 42.0518 14.3988 42.0416C15.7307 41.9588 16.9133 41.54 17.9112 40.7969C18.7681 40.1143 19.5346 39.2635 20.1279 38.3363L20.1344 38.3265C20.7098 37.49 21.2726 36.6615 21.8169 35.8603C22.3585 35.0629 22.9185 34.2386 23.4916 33.4054C23.8908 32.7879 24.3178 32.1621 24.7307 31.5568C25.1422 30.9536 25.5677 30.33 25.963 29.7185C26.5996 28.6884 26.9683 27.5308 27.0588 26.278C27.1414 24.6179 26.6458 23.0253 25.6257 21.6724L25.612 21.653C25.039 20.7761 24.433 19.8832 23.847 19.0198C23.2601 18.1549 22.6532 17.2607 22.0775 16.3798C21.8066 15.9878 21.5388 15.5834 21.2798 15.1922C20.6085 14.1786 19.9143 13.1304 19.0996 12.1951ZM13.931 14.6331C14.7467 14.6331 15.4871 15.0669 15.9623 15.8233C16.4008 16.5211 16.8708 17.2111 17.3252 17.8784C17.7832 18.5508 18.2568 19.2461 18.7021 19.9548C19.186 20.6985 19.7014 21.4563 20.1998 22.189C20.7007 22.9256 21.2187 23.6872 21.707 24.4378L21.7172 24.4544C22.0872 25.0985 22.5066 25.8286 22.1834 26.686L22.1806 26.6931C22.0075 27.1234 21.7424 27.5861 21.4336 27.9969C20.64 29.181 19.8554 30.3628 19.0965 31.5058C18.3356 32.6519 17.5488 33.837 16.7526 35.025L16.7344 35.0497C16.4289 35.4296 16.0842 35.9283 15.7889 36.418L15.7716 36.444C15.3468 37.025 14.6542 37.3719 13.919 37.3719C13.1663 37.3719 12.4681 37.0007 12.0034 36.3536C11.6896 35.9078 11.3738 35.4366 11.0684 34.9809C10.7652 34.5286 10.4517 34.0608 10.1445 33.6244C9.65431 32.9152 9.18124 32.1982 8.72375 31.5048C8.26832 30.8145 7.79739 30.1008 7.31321 29.4003L7.30472 29.3874C7.14234 29.129 6.96962 28.8733 6.78676 28.6025C6.48319 28.1531 6.16937 27.6884 5.88712 27.1846C5.73157 26.9461 5.64101 26.628 5.56799 26.3716C5.54411 26.2877 5.52156 26.2085 5.50063 26.146L5.34516 25.6822H5.60154C5.66559 25.3081 5.82881 24.9348 6.07676 24.6031C6.82777 23.4608 7.61284 22.3007 8.37216 21.1786C9.13233 20.0552 9.91839 18.8936 10.6688 17.7521L10.677 17.7401C11.1236 17.1183 11.5452 16.5312 11.8864 15.8525L11.8994 15.8288C12.3511 15.0801 13.1105 14.6331 13.931 14.6331ZM21.0967 24.8104C20.6138 24.0685 20.0999 23.3128 19.6027 22.5819C19.1018 21.8454 18.5838 21.0837 18.0955 20.3331L18.0925 20.3284C17.6537 19.63 17.1833 18.9394 16.7285 18.2716C16.2704 17.599 15.7967 16.9036 15.3513 16.1948C15.0099 15.6513 14.4922 15.3396 13.931 15.3396C13.3706 15.3396 12.8455 15.6529 12.5239 16.1783C12.16 16.899 11.7067 17.5309 11.2679 18.1419C10.5162 19.2854 9.73024 20.4468 8.97011 21.5701C8.21006 22.6932 7.42413 23.8546 6.67387 24.9959L6.66074 25.0146C6.42469 25.3276 6.2893 25.6997 6.2893 26.0354V26.2843C6.34475 26.4749 6.41173 26.6838 6.49528 26.8085L6.5102 26.8328C6.77958 27.3151 7.08739 27.7708 7.38507 28.2116C7.56164 28.473 7.74416 28.7432 7.91161 29.0094C8.39855 29.7141 8.87017 30.4289 9.32629 31.1202C9.78172 31.8104 10.2527 32.5242 10.7368 33.2247C11.0469 33.6652 11.3627 34.1364 11.6681 34.592C11.9713 35.0444 12.2848 35.5122 12.592 35.9487C12.9232 36.4099 13.3952 36.6654 13.919 36.6654C14.4186 36.6654 14.8888 36.4331 15.1797 36.0433C15.4857 35.5374 15.8422 35.0217 16.1613 34.6235C16.9537 33.4411 17.7373 32.2609 18.4951 31.1195C19.2561 29.9733 20.043 28.788 20.8393 27.6L20.8507 27.5839C21.1249 27.2205 21.3593 26.8133 21.5111 26.437C21.715 25.891 21.4295 25.3898 21.0967 24.8104Z" fill="white"/>
</svg>
