<svg width="85" height="60" viewBox="0 0 85 60" fill="none" xmlns="http://www.w3.org/2000/svg">
<path d="M9.14062 45.4777L9.35254 13.5104H5.11426V54.1855C10.9385 52.9049 16.7832 52.09 22.6689 52.0551C28.1035 52.026 33.5381 52.6721 38.9863 54.2437C35.6025 51.9096 31.8291 50.1925 27.8027 49.0749C22.7305 47.6663 17.2481 47.2006 11.6289 47.6081C10.3574 47.6954 9.25 46.8921 9.14063 45.8153C9.12695 45.6989 9.12695 45.5883 9.14062 45.4777ZM71.334 11.8398C71.3203 11.7467 71.3066 11.6478 71.3066 11.543C71.3066 11.444 71.3135 11.3451 71.334 11.2461V4.7735C66.0019 4.34277 60.5059 4.84335 55.707 6.39166C51.2227 7.84102 47.3535 10.2217 44.8379 13.6326V50.501C48.748 48.2775 52.7471 46.4498 56.8555 45.2041C61.5381 43.7839 66.3506 43.1087 71.334 43.4463V11.8398ZM75.9482 9.58141H82.1963C83.4678 9.58141 84.5 10.4603 84.5 11.543V56.7466C84.5 57.8293 83.4678 58.7082 82.1963 58.7082C81.9365 58.7082 81.6836 58.6733 81.4512 58.6034C75.0254 57.0376 68.6406 55.9957 62.3174 55.9608C56.1514 55.9259 49.9922 56.8514 43.8057 59.1738C43.4228 59.3892 42.9649 59.5056 42.4932 59.4998C42.0283 59.5056 41.5703 59.3892 41.1807 59.1738C35.001 56.8456 28.835 55.9259 22.6689 55.9608C16.3457 55.9957 9.96778 57.0376 3.53516 58.6034C3.30274 58.6733 3.04981 58.7082 2.79004 58.7082C1.53223 58.714 0.5 57.8351 0.5 56.7524V11.543C0.5 10.4603 1.53223 9.58141 2.80371 9.58141H9.37305L9.41406 3.02729C9.4209 2.08434 10.2002 1.30436 11.2461 1.1181C17.3096 0.0412676 24.6787 0.30902 31.1387 2.41612C35.6025 3.87129 39.6562 6.19376 42.6162 9.54648C45.6035 6.42076 49.5957 4.17397 54.0869 2.72461C60.2256 0.739752 67.3076 0.262454 73.9726 1.09482C75.1211 1.23451 75.9414 2.07851 75.9414 3.03311V9.58141H75.9482ZM47.0732 53.9468C52.166 52.5848 57.2519 52.026 62.3379 52.0493C68.2236 52.0784 74.0684 52.8991 79.8926 54.1797V13.5104H75.9482V45.6523C75.9482 46.735 74.916 47.6139 73.6445 47.6139C73.46 47.6139 73.2822 47.5965 73.1113 47.5615C68.0664 46.8863 63.1787 47.4451 58.4072 48.8945C54.5654 50.0644 50.792 51.8106 47.0732 53.9468ZM40.2305 50.1226V13.5744C37.8174 9.94811 33.9141 7.52088 29.5049 6.08316C24.5078 4.45336 18.8955 4.08666 14.001 4.68037L13.7412 43.5685C19.0801 43.4055 24.3027 43.9818 29.2178 45.3497C33.1279 46.4323 36.833 48.0214 40.2305 50.1226Z" fill="#7F58F9"/>
<path d="M42.5269 60C42.5046 60 42.4823 60 42.46 60C41.9143 60 41.3795 59.8676 40.9102 59.6167C35.2676 57.4918 29.4223 56.4589 23.0413 56.4589C22.9303 56.4589 22.8199 56.4592 22.7089 56.4598C17.0772 56.491 10.8856 57.3482 3.78015 59.0804C3.49251 59.165 3.18378 59.208 2.86225 59.208L2.8499 59.208C2.09012 59.208 1.37467 58.9528 0.835359 58.4894C0.29667 58.0264 0 57.4122 0 56.7599V11.5379C0 10.1848 1.29013 9.08393 2.8759 9.08393H8.85999L8.89787 3.01718C8.90631 1.84951 9.84678 0.867502 11.1849 0.628692C13.5291 0.211505 16.0027 0 18.5374 0C23.0284 0 27.4643 0.674016 31.3655 1.94919C33.7135 2.7162 35.8736 3.69647 37.7858 4.86274C39.6333 5.98955 41.2612 7.29801 42.6332 8.75799C45.5018 5.92572 49.2756 3.74018 53.8616 2.25715C58.0064 0.914174 62.7705 0.204246 67.6386 0.204246C69.7598 0.204246 71.8997 0.337466 73.9991 0.600187C75.3994 0.770872 76.457 1.8137 76.457 3.02562V9.08393H82.1241C83.7099 9.08393 85 10.1848 85 11.5379V56.754C85 58.1071 83.7099 59.208 82.1241 59.208C81.8025 59.208 81.4937 59.165 81.2059 59.0803C74.1084 57.3482 67.9168 56.491 62.2776 56.4598C62.1676 56.4592 62.057 56.4589 61.9471 56.4589C55.5859 56.4589 49.7405 57.4916 44.0778 59.6162C43.6145 59.8674 43.0794 60 42.5269 60ZM42.4931 59.0161L42.5269 59.0164C42.87 59.0164 43.2015 58.9317 43.4856 58.7716L43.5262 58.7487L43.5708 58.7319C49.3959 56.5405 55.4069 55.4753 61.9471 55.4753C62.0595 55.4753 62.1727 55.4756 62.2852 55.4762C68.0347 55.508 74.3327 56.3789 81.5389 58.1385L81.5722 58.1476C81.7413 58.1985 81.927 58.2244 82.1241 58.2244C83.0743 58.2244 83.8473 57.5648 83.8473 56.754V11.5379C83.8473 10.7271 83.0743 10.0675 82.1241 10.0675H75.3042V3.02562C75.3042 2.30004 74.6721 1.67582 73.8339 1.57365C71.7876 1.31757 69.704 1.18785 67.6386 1.18785C62.9089 1.18785 58.2863 1.87562 54.2705 3.1768C49.6247 4.67919 45.8541 6.92476 43.063 9.85122L42.598 10.3388L42.1553 9.83631C39.439 6.7532 35.6701 4.40863 30.9533 2.86774C27.1822 1.63512 22.8889 0.983607 18.5374 0.983607C16.0817 0.983607 13.6872 1.18814 11.4206 1.59152C10.6192 1.73455 10.0556 2.32315 10.0506 3.02284L10.0066 10.0675H2.8759C1.92575 10.0675 1.15274 10.7271 1.15274 11.5379V56.7599C1.15274 57.1508 1.33053 57.5189 1.65337 57.7963C1.9746 58.0724 2.3995 58.2244 2.84979 58.2244L2.85912 58.2244C3.05937 58.2244 3.24506 58.1985 3.41418 58.1476L3.44759 58.1385C10.6616 56.3788 16.9595 55.508 22.7013 55.4762C22.8148 55.4756 22.9277 55.4753 23.0413 55.4753C29.6011 55.4753 35.6116 56.5406 41.4163 58.7322L41.4583 58.7481L41.4969 58.7694C41.7886 58.931 42.1216 59.0164 42.46 59.0164L42.4931 59.0161ZM4.60587 54.8271V13.014H9.99245L9.77449 45.5335C9.76501 45.6104 9.76511 45.688 9.7748 45.7708L9.77552 45.7773C9.85355 46.5472 10.5934 47.1277 11.4964 47.1277C11.5436 47.1277 11.5914 47.126 11.6387 47.1228C12.947 47.0277 14.2638 46.9794 15.55 46.9794C19.9224 46.9794 24.1139 47.5289 28.0082 48.6126C32.1654 49.769 35.9832 51.5372 39.3555 53.8683L38.8078 54.7162C33.77 53.26 28.6171 52.5521 23.0544 52.5521C22.9394 52.5521 22.8236 52.5524 22.7086 52.553C17.3275 52.585 11.6415 53.277 5.32634 54.6684L4.60587 54.8271ZM5.75861 13.9976V53.5597C11.8805 52.2522 17.4296 51.6008 22.701 51.5694C27.342 51.5448 31.702 51.9992 35.9452 52.9542C33.3852 51.5117 30.6068 50.37 27.6508 49.5478C23.8721 48.4962 19.8008 47.963 15.55 47.963C14.2963 47.963 13.0124 48.0101 11.734 48.103C11.6534 48.1086 11.5744 48.1113 11.4964 48.1113C10.7758 48.1113 10.0856 47.8822 9.55295 47.4661C9.01942 47.0494 8.69083 46.4811 8.62742 45.8656C8.6112 45.7254 8.61042 45.5912 8.62508 45.4564L8.83319 13.9976H5.75861ZM80.401 54.8213L79.6805 54.6626C73.3405 53.2657 67.6548 52.5738 62.2985 52.5472C62.1984 52.5468 62.0985 52.5465 61.9982 52.5465C56.7764 52.5465 51.9482 53.1602 47.2376 54.4227L46.7426 53.5458C50.7667 51.2294 54.5093 49.5581 58.1842 48.4366C61.774 47.3439 65.3419 46.79 68.7892 46.79C70.2419 46.79 71.7074 46.8877 73.1452 47.0806L73.1902 47.0882C73.316 47.1139 73.4498 47.127 73.5879 47.127C74.538 47.127 75.3111 46.4674 75.3111 45.6567V13.014H80.401V54.8213ZM61.9982 51.5629C62.1006 51.5629 62.2025 51.5632 62.3049 51.5636C67.5534 51.5896 73.103 52.2411 79.2482 53.5539V13.9976H76.4638V45.6567C76.4638 47.0098 75.1737 48.1106 73.5879 48.1106C73.3678 48.1106 73.1516 48.09 72.9451 48.0494C71.5732 47.8664 70.175 47.7736 68.7892 47.7736C65.4742 47.7736 62.0366 48.3083 58.572 49.3629C55.975 50.1554 53.3382 51.2325 50.5819 52.6298C54.2428 51.9136 58.0093 51.5629 61.9982 51.5629ZM44.2573 51.4265V13.4865L44.3455 13.3665C45.5976 11.6653 47.221 10.156 49.1707 8.8805C51.0032 7.68168 53.1254 6.68741 55.4785 5.9253C59.118 4.74858 63.3183 4.12665 67.6257 4.12665C68.8561 4.12665 70.1045 4.1772 71.336 4.2769L71.8579 4.31914V11.284L71.8492 11.3264C71.8365 11.3875 71.8306 11.4547 71.8306 11.5379C71.8306 11.6118 71.841 11.6884 71.8535 11.7738L71.8579 11.8042V43.9825L71.2358 43.9403C70.4132 43.8844 69.5775 43.8561 68.7517 43.8561C64.9325 43.8561 60.9864 44.467 57.0228 45.6717C53.1792 46.8394 49.2968 48.5548 45.1537 50.9157L44.2573 51.4265ZM45.41 13.7709V49.5946C49.3001 47.4451 52.9814 45.8554 56.636 44.7451C60.7241 43.5025 64.8004 42.8725 68.7517 42.8725C69.4004 42.8725 70.055 42.8894 70.7052 42.9227V11.8651C70.6908 11.7641 70.6779 11.656 70.6779 11.5379C70.6779 11.416 70.6868 11.3053 70.7052 11.2013V5.21695C69.6799 5.14611 68.6465 5.11026 67.6257 5.11026C63.4564 5.11026 59.3973 5.71012 55.8872 6.845C51.3244 8.32279 47.7052 10.716 45.41 13.7709ZM40.811 51.0933L39.8959 50.5261C36.6026 48.485 32.9581 46.9022 29.0637 45.8216C24.8178 44.6375 20.2696 44.0372 15.5446 44.0372C14.9727 44.0372 14.3905 44.0461 13.8142 44.0638L13.2137 44.0821L13.4793 4.24629L13.9715 4.18646C15.4559 4.00602 16.9912 3.91454 18.5349 3.91454C22.4536 3.91454 26.3265 4.50332 29.7347 5.61725C34.6486 7.22291 38.4528 9.88904 40.7361 13.3274L40.811 13.4402V51.0933ZM15.5446 43.0536C20.3914 43.0536 25.0601 43.6703 29.421 44.8865C33.0724 45.8996 36.5113 47.3422 39.6582 49.1797V13.7007C37.5003 10.5172 33.9297 8.04126 29.3224 6.53579C26.0444 5.46443 22.3142 4.89814 18.5349 4.89814C17.2156 4.89814 15.9032 4.96733 14.6263 5.10399L14.3733 43.0655C14.7651 43.0576 15.1572 43.0536 15.5446 43.0536Z" fill="#7F58F9"/>
</svg>
