<svg width="85" height="60" viewBox="0 0 85 60" fill="none" xmlns="http://www.w3.org/2000/svg">
<mask id="mask0_4_15140" style="mask-type:alpha" maskUnits="userSpaceOnUse" x="0" y="0" width="85" height="60">
<rect width="84.9999" height="60" fill="#7F58F9"/>
</mask>
<g mask="url(#mask0_4_15140)">
<path d="M83.2316 15.7585C70.0487 10.5682 56.8682 5.36633 43.6743 0.221891C42.98 -0.0478119 42.1149 -0.0851113 41.4272 0.184592C28.311 5.2946 15.2102 10.4706 2.10286 15.6179C1.23998 15.9565 0.443641 16.361 0 17.4685V18.7597C0.488005 19.7811 1.25994 20.2516 2.09399 20.6705C6.8099 23.0261 11.5103 25.4305 16.2262 27.7775C16.8074 28.0673 17.0136 28.4345 17.007 29.2494C16.9782 34.3307 17.0514 39.4149 16.9715 44.4933C16.9183 47.8962 17.963 50.4985 19.9572 52.5729C22.5813 55.2987 25.6558 56.7906 28.8589 57.835C37.033 60.5034 45.2758 60.6353 53.5386 58.6154C57.2741 57.703 60.892 56.2742 64.0995 53.4997C66.6793 51.2675 68.1655 48.3438 68.0524 44.1089C67.917 39.1394 68.0124 34.1614 68.0368 29.1863C68.039 28.7932 68.1788 28.1677 68.3895 28.0472C69.7737 27.2639 71.1978 26.5897 72.7261 25.8178C72.8459 26.8077 73.0367 27.6799 73.0433 28.555L73.0744 28.6383C73.0921 33.1716 73.0966 37.7049 73.0877 42.2353C73.0855 42.5939 72.8925 43.0358 72.684 43.2883C71.7235 44.4503 71.1734 45.8189 71.5416 47.506C72.0784 49.9763 72.6906 52.4237 73.3295 54.8568C73.7554 56.4836 74.2833 58.0674 74.8223 59.8664C75.0929 58.9913 75.3192 58.3429 75.4944 57.6686C76.3839 54.2543 77.2912 50.8457 78.1274 47.4084C78.4269 46.1689 78.1873 44.8262 77.4465 44.0371C76.7233 43.2682 76.557 42.3988 76.5281 41.4348C76.5192 41.1421 76.5215 40.838 76.5259 40.5281C76.5281 40.4449 76.5281 40.3502 76.5281 40.247V29.8577C76.4771 28.1304 76.3329 26.4089 75.978 24.6931C75.9447 24.5325 75.9115 24.3746 75.8737 24.214C76.0934 24.1021 76.3107 23.993 76.5281 23.884C78.8373 22.722 81.1176 21.5887 83.3802 20.398C83.8704 20.1397 84.4028 19.7294 84.6889 19.19C85.4342 17.7899 84.7976 16.3725 83.2316 15.7585ZM64.5897 45.5779C64.5875 47.0727 63.8733 48.097 63.0592 48.9922C61.2957 50.9232 59.2062 52.0479 57.0323 52.9316C50.9833 55.3876 44.7701 55.8782 38.4881 55.3733C34.502 55.0548 30.5558 54.283 26.8248 52.3807C25.1478 51.5257 23.564 50.3006 22.0401 49.0381C20.8622 48.0655 20.3631 46.5333 20.3898 44.6224C20.4563 39.7936 20.4119 34.9648 20.4119 29.9236C22.8364 31.1516 25.1456 32.3194 27.457 33.4872C32.0864 35.8284 36.7202 38.1611 41.3429 40.5195C42.1348 40.9241 42.858 40.9413 43.6632 40.531C50.2646 37.1597 56.8793 33.8286 63.4917 30.486C63.82 30.3196 64.155 30.1675 64.4788 30.0097C64.5321 30.1159 64.5831 30.1704 64.5831 30.2249C64.5897 35.3435 64.6008 40.4593 64.5897 45.5779ZM73.904 20.4726C73.7465 20.5472 73.5025 20.55 73.3672 20.4439C71.739 19.1786 69.8913 19.0896 68.0923 18.7826C60.9408 17.5603 53.7871 16.3725 46.6334 15.1732C45.4533 14.9752 44.2754 14.7772 43.0953 14.6051C41.9285 14.4387 41.0524 15.2105 40.9503 16.4586C40.8394 17.7927 41.5492 18.7711 42.7537 18.972C50.9766 20.3435 59.1995 21.7178 67.4224 23.0921C67.6376 23.1294 67.8483 23.2069 68.2298 23.3102C67.8416 23.5282 67.6065 23.6688 67.3647 23.7922C59.2905 27.8808 51.2184 31.9722 43.1375 36.035C42.7914 36.2071 42.3101 36.2588 41.9751 36.0895C30.4981 30.3138 19.03 24.5066 7.56187 18.6994C7.41546 18.6248 7.2735 18.5244 6.99844 18.3551C7.39328 18.1744 7.6639 18.0338 7.9434 17.9247C19.1964 13.489 30.4471 9.0561 41.7067 4.64617C42.126 4.48262 42.6472 4.41376 43.0554 4.57157C54.4481 9.02167 65.8342 13.5062 77.218 17.985C77.4465 18.0768 77.6638 18.203 78.0387 18.3895C76.5614 19.1384 75.2371 19.8184 73.904 20.4726Z" fill="#7F58F9"/>
</g>
</svg>
