<svg width="50" height="60" viewBox="0 0 50 60" fill="none" xmlns="http://www.w3.org/2000/svg">
<path d="M32.6263 7.13135C32.4847 7.13135 32.3479 7.10775 32.2205 7.06055C31.5504 7.06055 31.003 6.51302 31.003 5.84277V3.43555H19.1585V5.84277C19.1585 6.47526 18.6771 6.99447 18.0589 7.05583C17.9268 7.10303 17.7852 7.13135 17.639 7.13135H13.1843V12.1016H36.5713V7.13135H32.6263ZM34.3015 58.679C34.0844 58.8773 33.7966 59 33.4804 59C33.4144 59 33.353 58.9953 33.2917 58.9858H3.70867V58.9906C2.97252 58.9906 2.29299 58.6838 1.7975 58.1929V58.1881H1.79278L1.78806 58.1834C1.30201 57.6925 1 57.0176 1 56.2812V10.5534C1 9.80762 1.30673 9.12793 1.7975 8.63704C2.28827 8.14616 2.9678 7.83936 3.71339 7.83936H10.754V6.5083C10.754 6.0127 10.9569 5.55957 11.2873 5.22917L11.292 5.22445L11.2967 5.21973C11.627 4.89404 12.0801 4.69108 12.5755 4.69108H16.7329V3.01546C16.7329 2.46322 16.9594 1.96289 17.3228 1.59473L17.3275 1.59001C17.6861 1.22656 18.1864 1 18.7385 1H31.4277C31.9798 1 32.48 1.22656 32.8481 1.59473L32.8528 1.59001C33.2162 1.95345 33.4427 2.4585 33.4427 3.01546V4.6958H37.1895C37.685 4.6958 38.138 4.89876 38.4683 5.22917L38.473 5.23389L38.4778 5.23861L38.4825 5.24333C38.8081 5.57373 39.011 6.02686 39.011 6.52246V7.85352H46.0517C46.7925 7.85352 47.4721 8.16032 47.9628 8.6512L47.9676 8.64648C48.4583 9.13737 48.7651 9.81706 48.7651 10.5628V43.2161C48.7886 43.3153 48.8028 43.4144 48.8028 43.5182C48.8028 43.8864 48.6424 44.2121 48.3828 44.4386L34.4053 58.5988C34.3723 58.6224 34.3345 58.6507 34.3015 58.679ZM32.2629 56.5597V45.9679C32.2629 44.9578 32.6782 44.0374 33.3436 43.3719C34.0089 42.7064 34.9291 42.291 35.939 42.291H46.3254V10.5534C46.3254 10.4779 46.2923 10.4118 46.2451 10.3599L46.2499 10.3551H46.2451C46.1979 10.3079 46.1272 10.2796 46.0517 10.2796H39.011V12.7199C39.011 13.2155 38.8081 13.6686 38.4778 13.999H38.473L38.4683 14.0037L38.4636 14.0085C38.1333 14.3341 37.6803 14.5371 37.1848 14.5371H12.5708C12.0706 14.5371 11.6129 14.3341 11.2873 14.0037C11.2495 13.966 11.2118 13.9235 11.1835 13.881C10.9192 13.5648 10.754 13.1541 10.754 12.7152V10.2749H3.70867C3.63316 10.2749 3.5671 10.3079 3.51519 10.3551C3.46328 10.4071 3.43497 10.4731 3.43497 10.5487V56.2718C3.43497 56.3473 3.46328 56.4181 3.51519 56.4653L3.51991 56.4701C3.5671 56.5173 3.63788 56.5503 3.71339 56.5503V56.555L32.2629 56.5597ZM34.6979 45.9679V54.8322L44.6737 44.7266H35.9343C35.5945 44.7266 35.2831 44.8682 35.0613 45.09C34.8348 45.3166 34.6979 45.6281 34.6979 45.9679ZM11.0372 40.9552C10.3624 40.9552 9.81969 40.4077 9.81969 39.7375C9.81969 39.0625 10.3671 38.5197 11.0372 38.5197H32.4611C33.1312 38.5197 33.6786 39.0672 33.6786 39.7375C33.6786 40.4077 33.1312 40.9552 32.4611 40.9552H11.0372ZM11.0372 24.638C10.3624 24.638 9.81969 24.0905 9.81969 23.4202C9.81969 22.75 10.3671 22.2025 11.0372 22.2025H38.7232C39.398 22.2025 39.9406 22.75 39.9406 23.4202C39.9406 24.0905 39.3932 24.638 38.7232 24.638H11.0372ZM11.0372 32.7943C10.3624 32.7943 9.81969 32.2467 9.81969 31.5765C9.81969 30.9062 10.3671 30.3587 11.0372 30.3587H38.7232C39.398 30.3587 39.9406 30.9062 39.9406 31.5765C39.9406 32.2515 39.3932 32.7943 38.7232 32.7943H11.0372Z" fill="#7F58F9"/>
<path d="M18.7301 0H31.4365C31.8973 0 32.3434 0.105736 32.7475 0.30586L32.8635 0.189813L33.5478 0.874103C34.1115 1.43778 34.4219 2.18761 34.4219 2.98545V3.69991H37.2061C37.946 3.69991 38.6438 3.9902 39.171 4.51732L39.19 4.53643C39.7109 5.06486 39.9978 5.76091 39.9978 6.49635V6.86114H46.0802C46.7288 6.86114 47.3532 7.03024 47.9038 7.34786L47.998 7.25343L48.683 7.93843C49.3807 8.6362 49.765 9.56054 49.765 10.5412V43.1307C49.7904 43.2674 49.8028 43.4001 49.8028 43.5333C49.8028 44.1515 49.5405 44.7407 49.0815 45.1565L35.0483 59.3698L34.9805 59.4182C34.9641 59.4299 34.9538 59.4379 34.9484 59.4421C34.5454 59.8021 34.0291 60 33.492 60C33.406 60 33.3227 59.9953 33.2397 59.9858H4.6478L3.68006 59.9905C2.84604 59.9905 2.04852 59.7079 1.39502 59.1872H1.36546L1.11583 58.9417C1.10562 58.9318 1.09542 58.9218 1.0853 58.9118L0.798569 58.6278V58.5909C0.280262 57.9398 0 57.1446 0 56.3105V10.5317C0 9.55108 0.38427 8.62673 1.08201 7.92898C1.77978 7.23123 2.70413 6.84696 3.68479 6.84696H9.7672V6.48217C9.7672 5.74222 10.0575 5.04443 10.5846 4.51731L10.599 4.50296C11.1274 3.98206 11.8235 3.69519 12.5589 3.69519H15.7542V2.98545C15.7542 2.19794 16.063 1.45137 16.6239 0.883259L16.6319 0.875192C17.1907 0.310781 17.9357 0 18.7301 0ZM32.2589 2.33177L32.1745 2.24742C31.9733 2.04626 31.7112 1.93548 31.4365 1.93548H18.7301C18.4559 1.93548 18.1987 2.043 18.006 2.23821L17.9988 2.24544C17.7994 2.44866 17.6896 2.71134 17.6896 2.98545V5.63067H12.5589C12.3364 5.63067 12.124 5.71877 11.9603 5.87882L11.9532 5.88591C11.7916 6.04746 11.7027 6.25921 11.7027 6.48217V8.78244H3.68479C3.22112 8.78244 2.7828 8.96539 2.4506 9.29758C2.11842 9.62976 1.93548 10.0681 1.93548 10.5317V56.3105C1.93548 56.6474 2.03351 56.9718 2.21628 57.2518H2.71705V57.0865C2.53828 56.8691 2.43825 56.591 2.43825 56.301V10.527C2.43825 10.1954 2.56745 9.88358 2.80203 9.64899L2.83541 9.61717C3.0709 9.40311 3.37088 9.28522 3.68006 9.28522H11.7027V12.6959C11.7027 12.8904 11.7754 13.0845 11.9075 13.2425L11.9411 13.2827L11.9581 13.3066C12.1119 13.4627 12.3292 13.5522 12.5542 13.5522H37.2014C37.4239 13.5522 37.6363 13.4641 37.8 13.304L37.8647 13.2392C37.9926 13.0865 38.0623 12.898 38.0623 12.7007V9.28994H46.0802C46.2278 9.28994 46.3734 9.31615 46.5097 9.36555H47.3635L47.3097 9.31176C46.9775 8.97957 46.5408 8.79662 46.0802 8.79662H38.0623V6.49635C38.0623 6.27355 37.974 6.06086 37.8136 5.89712L37.8023 5.88591C37.6408 5.72436 37.429 5.63539 37.2061 5.63539H32.4865V2.98545C32.4865 2.74485 32.4064 2.51676 32.2589 2.33177ZM33.7822 57.8973L47.7511 43.7492L47.7782 43.7256C47.8373 43.674 47.8673 43.6093 47.8673 43.5333C47.8673 43.5131 47.8636 43.4874 47.8558 43.455L47.8295 43.3444V10.5412C47.8295 10.4199 47.817 10.3003 47.7925 10.1839L47.322 10.6568V43.2724H35.9539C35.2342 43.2724 34.5543 43.5561 34.0393 44.0711C33.5242 44.5861 33.2406 45.2661 33.2406 45.9857V57.5572L2.7308 57.5521L2.73185 57.7679C2.98222 57.9328 3.26616 58.0303 3.56139 58.0509L3.68006 58.0503H33.377L33.45 58.0616C33.4595 58.063 33.4719 58.0645 33.492 58.0645C33.5705 58.0645 33.6276 58.0274 33.6617 57.9963L33.6844 57.9762C33.7143 57.9505 33.747 57.9242 33.7822 57.8973ZM9.7672 11.2207H4.37374V55.6121H4.65254V55.617L31.3051 55.6214V45.9857C31.3051 44.7491 31.7901 43.5831 32.6707 42.7025C33.5513 41.8219 34.7173 41.3369 35.9539 41.3369H45.3865V11.2254H39.9978V12.7007C39.9978 13.4406 39.7075 14.1384 39.1804 14.6655L38.8969 14.949H38.8457C38.3692 15.2987 37.7983 15.4877 37.2014 15.4877H12.5542C11.8164 15.4877 11.0985 15.1894 10.5836 14.6693C10.5102 14.5957 10.4478 14.5233 10.3941 14.4492C9.98947 13.9495 9.7672 13.3287 9.7672 12.6959V11.2207ZM18.183 2.43826H31.979V5.8159C31.979 5.95216 32.0941 6.06729 32.2303 6.06729H32.4038L32.5665 6.12753C32.5852 6.13449 32.6095 6.13816 32.6367 6.13816H37.5548V13.0494H12.2007V6.13816H17.6292C17.6561 6.13816 17.689 6.13153 17.7242 6.11896L17.836 6.07902L17.9541 6.0673C18.0846 6.05435 18.183 5.94627 18.183 5.8159V2.43826ZM30.0435 4.37374H20.1184V5.8159C20.1184 6.90553 19.3292 7.81506 18.2638 7.97837C18.0542 8.04163 17.8413 8.07365 17.6292 8.07365H14.1362V11.1139H35.6193V8.07365H32.6367C32.4389 8.07365 32.2457 8.04766 32.0604 7.99623C30.9336 7.90921 30.0435 6.96456 30.0435 5.8159V4.37374ZM11.0185 21.2261H38.7418C39.9477 21.2261 40.9287 22.2071 40.9287 23.4129C40.9287 24.6188 39.9477 25.5998 38.7418 25.5998H11.0185C9.81261 25.5998 8.83159 24.6188 8.83159 23.4129C8.83159 22.2071 9.81261 21.2261 11.0185 21.2261ZM38.7418 23.6643C38.8781 23.6643 38.9932 23.5492 38.9932 23.4129C38.9932 23.2743 38.8804 23.1615 38.7418 23.1615H11.0185C10.8822 23.1615 10.7671 23.2767 10.7671 23.4129C10.7671 23.5515 10.8798 23.6643 11.0185 23.6643H38.7418ZM11.0185 29.3914H38.7418C39.9477 29.3914 40.9287 30.3724 40.9287 31.5782C40.9287 32.7841 39.9477 33.7651 38.7418 33.7651H11.0185C9.81261 33.7651 8.83159 32.7841 8.83159 31.5782C8.83159 30.3724 9.81261 29.3914 11.0185 29.3914ZM38.7418 31.8296C38.8804 31.8296 38.9932 31.7169 38.9932 31.5782C38.9932 31.4396 38.8804 31.3269 38.7418 31.3269H11.0185C10.8822 31.3269 10.7671 31.442 10.7671 31.5782C10.7671 31.7169 10.8798 31.8296 11.0185 31.8296H38.7418ZM11.0185 37.5614H32.4713C33.6772 37.5614 34.6582 38.5425 34.6582 39.7483C34.6582 40.9541 33.6772 41.9352 32.4713 41.9352H11.0185C9.81261 41.9352 8.83159 40.9541 8.83159 39.7483C8.83159 38.5425 9.81261 37.5614 11.0185 37.5614ZM32.4713 39.9997C32.6076 39.9997 32.7227 39.8846 32.7227 39.7483C32.7227 39.612 32.6076 39.4969 32.4713 39.4969H11.0185C10.8798 39.4969 10.7671 39.6097 10.7671 39.7483C10.7671 39.8869 10.8798 39.9997 11.0185 39.9997H32.4713ZM35.9492 43.7752H47.0159L33.7434 57.2173V45.9857C33.7434 45.3951 33.9733 44.8399 34.3907 44.4225C34.802 44.0111 35.3701 43.7752 35.9492 43.7752ZM42.3849 45.7107H35.9492C35.8503 45.7107 35.7834 45.7669 35.7593 45.7911C35.7293 45.8211 35.6789 45.8863 35.6789 45.9857V52.5023L42.3849 45.7107Z" fill="#7F58F9"/>
</svg>
