<svg xmlns="http://www.w3.org/2000/svg" width="160" height="32" viewBox="0 0 160 32" fill="none"><metadata><rdf:RDF xmlns:rdf="http://www.w3.org/1999/02/22-rdf-syntax-ns#" xmlns:dc="http://purl.org/dc/elements/1.1/"><rdf:Description><dc:creator>RealFaviconGenerator</dc:creator><dc:source>https://realfavicongenerator.net</dc:source></rdf:Description></rdf:RDF></metadata><rect y="21.2979" width="56" height="10.7017" fill="#E50020"></rect><rect width="56" height="10.7015" fill="#E50020"></rect><rect y="10.6494" width="56" height="10.7015" fill="white"></rect><rect x="104" width="56" height="10.6668" fill="#050605"></rect><rect x="104" y="10.667" width="56" height="10.6667" fill="#D5001B"></rect><rect x="104" y="21.334" width="56" height="10.6664" fill="#FDCF0A"></rect><path d="M131.409 10.7199C130.846 10.6384 130.484 10.4802 130.324 10.2842C130.718 10.429 131.184 10.5352 131.732 10.5737L131.73 10.611C131.176 10.5709 130.706 10.4634 130.331 10.2883C130.507 10.451 130.862 10.6054 131.409 10.7199Z" fill="#050605"></path><rect x="64" width="32" height="32" fill="#C9151C"></rect><rect x="76.7334" y="5" width="6.53342" height="22" fill="white"></rect><rect x="69" y="12.7949" width="22" height="6.40938" fill="white"></rect></svg>